{"title":"The Awakening 2011 CAM XviD AC3-BlackStaticRG","uid":6942437,"size":791096976,"categoryP":"video","categoryS":"movies","magnet":"?xt=urn:btih:d45b9566bc40698f519323911f878f54b66dc239&amp;dn=The+Awakening+2011+CAM+XviD+AC3-BlackStaticRG&amp;tr=udp%3A%2F%2Ftracker.openbittorrent.com%3A80&amp;tr=udp%3A%2F%2Fopen.demonii.com%3A1337&amp;tr=udp%3A%2F%2Ftracker.coppersurfer.tk%3A6969&amp;tr=udp%3A%2F%2Fexodus.desync.com%3A6969","seeders":0,"leechers":1,"uploader":"rcbcsk","files":-1,"time":1326097174,"description":"Format : AVI\nFormat/Info : Audio Video Interleave\nFile size : 745 MiB\nDuration : 1h 42mn\nOverall bit rate : 1 019 Kbps\nWriting library : VirtualDub build 32842/release\n\nVideo\nID : 0\nFormat : MPEG-4 Visual\nFormat profile : Advanced Simple@L4\nFormat settings, BVOP : 2\nFormat settings, QPel : No\nFormat settings, GMC : No warppoints\nFormat settings, Matrix : Default (H.263)\nMuxing mode : Packed bitstream\nCodec ID : XVID\nCodec ID/Hint : XviD\nDuration : 1h 42mn\nBit rate : 882 Kbps\nWidth : 720 pixels\nHeight : 306 pixels\nDisplay aspect ratio : 2.35:1\nFrame rate : 25.000 fps\nColor space : YUV\nChroma subsampling : 4:2:0\nBit depth : 8 bits\nScan type : Progressive\nCompression mode : Lossy\nBits/(Pixel*Frame) : 0.160\nStream size : 644 MiB (86%)\nWriting library : XviD 64\n\nAudio\nID : 1\nFormat : AC-3\nFormat/Info : Audio Coding 3\nMode extension : CM (complete main)\nCodec ID : 2000\nDuration : 1h 42mn\nBit rate mode : Constant\nBit rate : 128 Kbps\nChannel(s) : 2 channels\nChannel positions : Front: L R\nSampling rate : 48.0 KHz\nBit depth : 16 bits\nCompression mode : Lossy\nStream size : 93.6 MiB (13%)\nAlignment : Aligned on interleaves\nInterleave, duration : 40 ms (1.00 video frame)\nInterleave, preload duration : 512 ms\n\n\n\n\n\n\n\n\n\n\n\n &lt;a href=&quot;\nhttp://www.imdb.com/title/tt1687901/&quot; rel=&quot;nofollow&quot; target=&quot;_NEW&quot;&gt;\nhttp://www.imdb.com/title/tt1687901/&lt;/a&gt;\n\n\n\nRatings: 7.0/10 from 758 users\nReviews: 16 user | 38 critic\n\nDirector: Nick Murphy\nWriters: Stephen Volk, Nick Murphy\nStars: Rebecca Hall, Dominic West and Imelda Staunton\n\nScreens\n &lt;a href=&quot;\nhttp://www.shotpix.com/images/81601658395116283253.png&quot; rel=&quot;nofollow&quot; target=&quot;_NEW&quot;&gt;\nhttp://www.shotpix.com/images/81601658395116283253.png&lt;/a&gt;\n &lt;a href=&quot;\nhttp://www.shotpix.com/images/83860200609705147482.png&quot; rel=&quot;nofollow&quot; target=&quot;_NEW&quot;&gt;\nhttp://www.shotpix.com/images/83860200609705147482.png&lt;/a&gt;\n &lt;a href=&quot;\nhttp://www.shotpix.com/images/84376442219309925712.png&quot; rel=&quot;nofollow&quot; target=&quot;_NEW&quot;&gt;\nhttp://www.shotpix.com/images/84376442219309925712.png&lt;/a&gt;\n &lt;a href=&quot;\nhttp://www.shotpix.com/images/12683765467808363220.png&quot; rel=&quot;nofollow&quot; target=&quot;_NEW&quot;&gt;\nhttp://www.shotpix.com/images/12683765467808363220.png&lt;/a&gt;\n &lt;a href=&quot;\nhttp://www.shotpix.com/images/61924121750238912857.png&quot; rel=&quot;nofollow&quot; target=&quot;_NEW&quot;&gt;\nhttp://www.shotpix.com/images/61924121750238912857.png&lt;/a&gt;\n &lt;a href=&quot;\nhttp://www.shotpix.com/images/04057217232002519022.png&quot; rel=&quot;nofollow&quot; target=&quot;_NEW&quot;&gt;\nhttp://www.shotpix.com/images/04057217232002519022.png&lt;/a&gt;\n\n\n\n\nSource Used\n\n\n720P 26K .................Thanks\n\n\nso check out the sample provided ....Filtered the vid , Audio encoded to AC3\n\n\nEnjoy\n\n\n\n\n\nGreetz to Flawl3ss,DDR,Sam,absurdity,BHRG,iLLUMiNATi,SafCuk009,MiSTERE,Feel-free,3Li,DTRG","torrent":{"xt":"urn:btih:d45b9566bc40698f519323911f878f54b66dc239","amp;dn":"The+Awakening+2011+CAM+XviD+AC3-BlackStaticRG","amp;tr":["udp%3A%2F%2Ftracker.openbittorrent.com%3A80","udp%3A%2F%2Fopen.demonii.com%3A1337","udp%3A%2F%2Ftracker.coppersurfer.tk%3A6969","udp%3A%2F%2Fexodus.desync.com%3A6969"],"infoHash":"d45b9566bc40698f519323911f878f54b66dc239","infoHashBuffer":{"type":"Buffer","data":[212,91,149,102,188,64,105,143,81,147,35,145,31,135,143,84,182,109,194,57]},"announce":[],"urlList":[]}}